<?xml version="1.0" standalone="no"?>
<!DOCTYPE svg PUBLIC "-//W3C//DTD SVG 20010904//EN"
 "http://www.w3.org/TR/2001/REC-SVG-20010904/DTD/svg10.dtd">
<svg version="1.0" xmlns="http://www.w3.org/2000/svg"
 width="2000.000000pt" height="2000.000000pt" viewBox="0 0 2000.000000 2000.000000"
 preserveAspectRatio="xMidYMid meet">

<g transform="translate(0.000000,2000.000000) scale(0.100000,-0.100000)"
fill="#000000" stroke="none">
<path d="M6465 18450 c-4 -7 127 -10 384 -10 254 0 391 4 391 10 0 6 -135 10
-384 10 -246 0 -387 -4 -391 -10z"/>
<path d="M9345 18450 c-4 -7 127 -10 384 -10 254 0 391 4 391 10 0 6 -135 10
-384 10 -246 0 -387 -4 -391 -10z"/>
<path d="M12225 18450 c-4 -7 127 -10 384 -10 254 0 391 4 391 10 0 6 -135 10
-384 10 -246 0 -387 -4 -391 -10z"/>
<path d="M10050 16310 c-178 -32 -320 -162 -365 -335 -26 -100 -17 -202 29
-320 35 -93 11 -191 -65 -259 -84 -75 -79 -75 -639 -17 -267 28 -493 53 -502
55 -10 2 -18 -1 -18 -7 0 -7 -16 -165 -36 -352 -41 -390 -41 -436 2 -497 74
-106 177 -133 319 -84 105 36 176 42 266 22 142 -32 254 -121 318 -256 35 -73
36 -78 36 -190 -1 -108 -3 -119 -32 -183 -43 -91 -127 -177 -214 -221 -156
-78 -311 -67 -469 34 -100 64 -206 62 -293 -5 -79 -61 -84 -79 -128 -492 -21
-202 -37 -369 -35 -370 3 -3 431 -48 2021 -214 160 -16 477 -49 705 -73 230
-25 417 -40 420 -35 3 5 23 174 43 376 39 377 39 392 4 459 -35 67 -128 123
-203 124 -23 0 -82 -13 -132 -30 -111 -36 -199 -39 -293 -10 -158 48 -271 169
-314 335 -19 75 -19 125 0 200 23 89 51 140 113 206 158 171 380 197 593 68
108 -65 206 -65 296 0 79 57 87 89 130 498 20 199 35 364 33 366 -3 3 -230 28
-504 56 -548 57 -554 58 -618 129 -80 88 -84 196 -13 311 75 122 97 227 71
349 -51 245 -284 405 -526 362z"/>
<path d="M6645 15044 c-307 -39 -740 -91 -1350 -164 -613 -73 -643 -77 -693
-101 -99 -48 -162 -148 -162 -257 0 -35 27 -289 61 -565 77 -639 173 -1439
196 -1629 10 -86 21 -148 27 -148 6 0 174 20 373 44 409 49 423 53 484 143 27
39 33 58 37 117 4 65 1 76 -27 126 -129 229 -141 344 -56 516 108 220 378 314
601 208 66 -31 165 -121 201 -181 67 -114 81 -252 38 -379 -69 -205 23 -363
210 -364 56 0 714 75 721 83 2 2 -10 111 -26 243 -58 480 -58 482 -48 526 19
89 77 154 159 183 59 21 99 19 182 -10 194 -69 376 -24 509 124 201 224 133
572 -139 707 -70 34 -88 39 -171 42 -119 6 -194 -14 -287 -73 -114 -74 -215
-79 -304 -15 -64 46 -89 101 -106 226 -19 145 -75 607 -75 622 0 17 -50 14
-355 -24z"/>
<path d="M10320 10275 c0 -11 48 -27 120 -40 118 -21 130 -30 168 -124 22 -54
43 -87 62 -101 30 -22 95 -27 120 -9 11 7 5 8 -21 3 -67 -11 -108 24 -144 121
-10 28 -23 55 -28 62 -5 7 -5 18 -1 25 4 7 4 10 0 6 -4 -3 -26 2 -49 12 -23
10 -72 21 -110 24 -37 4 -78 11 -92 16 -14 5 -25 8 -25 5z"/>
<path d="M16106 10207 c-11 -26 -16 -50 -13 -54 9 -9 39 65 35 85 -2 10 -12
-3 -22 -31z"/>
<path d="M3861 10220 c-1 -20 -76 -92 -159 -154 -70 -54 -93 -88 -91 -143 l2
-38 6 40 c10 57 17 66 101 133 104 83 153 135 147 158 -3 13 -5 14 -6 4z"/>
<path d="M14144 10221 c28 -6 27 -7 -19 -19 -143 -38 -245 -160 -265 -315 -6
-40 -16 -101 -25 -137 -8 -36 -15 -88 -15 -116 0 -83 -24 -134 -109 -231 -108
-125 -115 -141 -116 -293 -1 -89 -7 -138 -18 -169 -18 -45 -22 -108 -9 -127 4
-6 37 -21 75 -33 37 -12 99 -37 138 -56 64 -31 76 -34 113 -25 22 5 71 10 109
10 l67 0 0 29 c0 32 7 41 75 97 25 20 45 40 45 44 0 4 -48 19 -106 34 -123 30
-185 65 -231 128 -37 51 -63 125 -63 176 0 29 126 598 136 610 1 2 61 -12 134
-30 l132 -33 16 21 c10 11 33 39 54 63 l36 43 -6 -44 c-3 -24 -6 -56 -7 -73
l0 -29 139 -33 c77 -19 141 -35 143 -36 1 -2 -9 -30 -22 -63 -13 -33 -27 -78
-31 -100 -5 -37 -3 -45 27 -78 l33 -38 -33 -131 c-35 -142 -34 -166 9 -212 33
-35 50 -128 50 -272 0 -155 -19 -136 157 -153 l113 -11 87 37 c49 19 141 63
206 97 l119 62 -5 80 c-6 97 -17 134 -59 204 -23 38 -45 60 -73 74 -67 31 -70
34 -73 52 -2 9 -1 38 3 64 6 38 9 42 16 26 6 -14 7 -6 4 25 -4 34 -2 40 5 25
7 -14 8 -6 4 30 -4 28 -10 58 -15 67 -13 24 -11 111 1 103 11 -7 14 58 3 69
-4 4 -6 22 -4 41 3 44 -30 117 -64 141 -52 36 -70 62 -93 131 -25 79 -75 144
-131 173 -50 25 -143 41 -227 38 -57 -1 -84 4 -154 31 -75 29 -98 33 -195 36
-60 1 -97 -1 -81 -4z"/>
<path d="M14043 10200 c-24 -10 -43 -21 -43 -24 0 -3 19 3 43 13 23 10 49 21
57 24 13 5 13 5 0 6 -8 0 -34 -8 -57 -19z"/>
<path d="M16202 10191 c-17 -48 -14 -73 4 -32 8 19 13 42 11 50 -1 9 -8 2 -15
-18z"/>
<path d="M8538 10195 c12 -25 50 -60 57 -53 3 2 -12 20 -31 39 -23 21 -33 26
-26 14z"/>
<path d="M8715 10170 c3 -5 -1 -10 -9 -10 -9 0 -30 -12 -46 -27 -24 -22 -32
-38 -35 -73 -4 -39 -4 -41 4 -13 12 47 37 80 71 98 17 9 28 20 25 25 -4 6 -8
10 -11 10 -3 0 -2 -4 1 -10z"/>
<path d="M12260 10138 c-13 -22 -18 -38 -11 -34 13 8 44 66 39 72 -3 2 -15
-15 -28 -38z"/>
<path d="M16280 10139 c-23 -45 -22 -63 2 -27 17 27 32 68 24 68 -3 0 -15 -18
-26 -41z"/>
<path d="M4082 10150 c0 -14 2 -19 5 -12 2 6 2 18 0 25 -3 6 -5 1 -5 -13z"/>
<path d="M13945 10128 l-40 -43 43 40 c39 36 47 45 39 45 -2 0 -21 -19 -42
-42z"/>
<path d="M15971 10138 c-1 -26 2 -28 37 -28 42 0 72 -21 96 -65 l17 -30 -6 30
c-9 44 -45 76 -93 82 -26 4 -43 11 -45 22 -3 9 -5 4 -6 -11z"/>
<path d="M8480 10115 c35 -37 46 -44 34 -22 -13 23 -47 57 -58 57 -5 0 5 -16
24 -35z"/>
<path d="M10052 10128 c8 -13 31 -31 51 -41 35 -18 36 -18 96 8 70 29 118 31
185 9 26 -9 49 -14 52 -11 11 11 -65 38 -122 44 -53 5 -69 2 -119 -21 -50 -24
-61 -26 -86 -15 -17 6 -34 20 -40 30 -5 11 -15 19 -21 19 -6 0 -5 -9 4 -22z"/>
<path d="M12350 10105 c-12 -20 -20 -38 -17 -41 2 -3 15 11 27 31 12 20 20 38
17 41 -2 3 -15 -11 -27 -31z"/>
<path d="M4070 10107 c0 -28 -48 -74 -97 -92 -78 -28 -119 -60 -143 -110 -20
-42 -22 -56 -16 -136 10 -128 -3 -152 -163 -308 -101 -99 -135 -140 -160 -190
-17 -35 -31 -74 -31 -85 1 -14 5 -9 14 16 33 91 106 180 268 325 76 69 89 103
86 236 -2 153 18 188 133 233 24 10 56 25 70 35 27 19 57 75 45 86 -3 3 -6 -1
-6 -10z"/>
<path d="M12130 10094 c0 -2 15 -10 34 -18 36 -15 54 -39 68 -91 6 -25 7 -22
4 14 -5 50 -27 77 -74 90 -18 5 -32 8 -32 5z"/>
<path d="M12427 10052 c-32 -33 -36 -54 -6 -26 20 18 44 54 36 54 -2 0 -15
-13 -30 -28z"/>
<path d="M8390 10066 c0 -2 19 -15 43 -30 l42 -27 -33 30 c-28 27 -52 39 -52
27z"/>
<path d="M10150 10038 c0 -16 33 -49 67 -67 30 -15 82 -14 133 4 58 20 108 19
155 -5 48 -25 56 -19 15 10 -43 30 -107 36 -169 16 -86 -28 -130 -20 -178 32
-15 17 -23 20 -23 10z"/>
<path d="M4221 9967 c-1 -31 -49 -87 -75 -87 -30 0 -127 -53 -152 -83 -24 -29
-25 -34 -18 -117 10 -136 -21 -197 -130 -259 -98 -55 -199 -197 -183 -258 3
-13 5 -10 6 7 4 75 93 187 201 250 71 43 93 68 115 131 17 48 19 100 5 148
-19 66 27 123 128 160 26 9 57 22 68 28 25 14 48 64 41 90 -3 12 -5 8 -6 -10z"/>
<path d="M10752 9845 c2 -5 14 -32 27 -58 20 -43 21 -53 10 -80 -7 -18 -20
-41 -29 -52 -30 -35 -42 -67 -43 -114 -1 -47 22 -108 31 -83 2 8 -1 19 -7 25
-25 25 -6 105 42 169 13 18 27 43 30 56 8 32 -9 82 -39 117 -14 17 -24 26 -22
20z"/>
<path d="M13950 9770 c-12 -8 -10 -10 9 -10 14 0 33 -7 43 -17 10 -9 18 -11
18 -5 0 10 -38 42 -50 42 -3 0 -12 -5 -20 -10z"/>
<path d="M10065 9763 c11 -3 24 -9 30 -14 15 -15 28 -10 15 6 -7 8 -24 14 -39
14 -20 -1 -22 -2 -6 -6z"/>
<path d="M4210 9705 c-11 -14 -10 -14 15 -5 16 6 35 8 42 6 8 -3 11 -1 8 4 -9
15 -51 12 -65 -5z"/>
<path d="M4613 9713 c-7 -2 -13 -9 -13 -14 0 -6 9 -5 21 2 12 6 30 9 40 6 10
-3 17 -1 13 4 -5 10 -40 11 -61 2z"/>
<path d="M10453 9670 c16 -5 35 -14 43 -21 8 -6 14 -7 14 -2 0 18 -25 33 -54
32 l-31 -1 28 -8z"/>
<path d="M14353 9670 c16 -5 35 -14 43 -21 8 -6 14 -7 14 -2 0 18 -25 33 -54
32 l-31 -1 28 -8z"/>
<path d="M13935 9637 c-21 -32 -16 -62 9 -62 27 0 44 52 23 72 -13 14 -17 13
-32 -10z"/>
<path d="M10028 9626 c-13 -31 -4 -59 19 -54 18 3 33 43 25 66 -7 20 -32 14
-44 -12z"/>
<path d="M4621 9578 c-9 -25 0 -60 17 -66 19 -6 35 38 23 64 -13 30 -29 31
-40 2z"/>
<path d="M3482 9565 c-3 -53 -43 -117 -99 -159 -75 -55 -98 -107 -98 -216 0
-50 6 -93 13 -105 11 -18 11 -17 5 10 -4 17 -7 60 -7 96 0 87 31 150 97 199
58 42 101 121 94 172 l-4 33 -1 -30z"/>
<path d="M4255 9570 c-9 -30 4 -60 26 -60 16 0 19 7 19 40 0 33 -3 40 -19 40
-11 0 -23 -9 -26 -20z"/>
<path d="M15910 9562 c47 -22 244 -21 315 1 l50 16 -50 -7 c-64 -9 -269 -9
-315 0 l-35 7 35 -17z"/>
<path d="M10384 9545 c-18 -27 -11 -65 12 -65 18 0 32 35 26 67 -6 30 -17 29
-38 -2z"/>
<path d="M10826 9555 c13 -31 10 -108 -4 -113 -7 -2 -9 -8 -6 -13 10 -16 44
37 44 69 0 16 -9 40 -21 53 -18 21 -19 21 -13 4z"/>
<path d="M14284 9545 c-19 -29 -15 -59 8 -63 22 -4 41 33 34 64 -8 31 -21 30
-42 -1z"/>
<path d="M15090 9498 c0 -15 5 -30 10 -33 6 -3 11 -21 11 -38 1 -22 3 -25 6
-10 2 12 -3 41 -11 65 -13 36 -15 39 -16 16z"/>
<path d="M10094 9415 c-10 -16 -14 -34 -9 -54 6 -29 35 -64 35 -43 0 6 -4 14
-10 17 -14 9 -13 78 2 93 7 7 9 12 5 12 -3 0 -14 -11 -23 -25z"/>
<path d="M14003 9432 c-32 -20 -20 -109 17 -120 12 -4 11 -1 -2 15 -23 25 -23
71 -1 95 16 18 8 24 -14 10z"/>
<path d="M4528 9393 c19 -7 14 -57 -9 -87 -23 -29 -11 -36 14 -8 34 37 30 104
-7 101 -7 0 -6 -2 2 -6z"/>
<path d="M10760 9278 c-25 -27 -25 -35 0 -43 11 -3 24 -20 29 -38 8 -28 9 -29
10 -8 1 14 -9 35 -21 48 -27 28 -16 43 39 53 l38 8 -37 1 c-26 1 -43 -5 -58
-21z"/>
<path d="M15081 9267 c-1 -33 15 -67 32 -67 8 0 8 3 -2 9 -8 5 -17 26 -21 47
-6 33 -8 34 -9 11z"/>
<path d="M14019 9199 c28 -23 86 -25 121 -3 23 14 24 14 3 9 -13 -3 -32 -7
-42 -10 -10 -3 -38 1 -62 9 l-44 15 24 -20z"/>
<path d="M4369 9190 c31 -27 64 -34 98 -22 27 10 26 10 -15 11 -24 1 -57 8
-75 16 l-32 16 24 -21z"/>
<path d="M10117 9199 c19 -19 96 -22 118 -5 19 14 17 14 -18 5 -27 -7 -48 -7
-69 0 -39 14 -45 14 -31 0z"/>
<path d="M15150 9189 c14 -6 40 -24 59 -42 26 -24 30 -26 18 -8 -19 29 -66 61
-87 60 -8 0 -4 -5 10 -10z"/>
<path d="M15251 9090 c14 -31 19 -36 19 -24 0 6 -7 19 -16 30 -14 18 -14 18
-3 -6z"/>
<path d="M4290 8904 c0 -6 91 -91 122 -112 17 -12 18 -9 18 52 l0 66 -70 0
c-38 0 -70 -3 -70 -6z"/>
<path d="M10170 8844 c0 -61 1 -64 19 -52 25 18 101 87 101 92 0 4 -93 26
-110 26 -6 0 -10 -30 -10 -66z"/>
<path d="M10035 8704 c-5 -2 -149 -17 -319 -33 -170 -17 -310 -32 -312 -34 -2
-1 -13 -45 -25 -97 -19 -80 -23 -122 -22 -265 0 -93 5 -183 10 -200 8 -27 14
-30 54 -33 l45 -3 15 -57 14 -57 55 -11 55 -10 7 -115 c16 -273 27 -331 108
-602 42 -141 79 -260 82 -262 3 -3 278 -5 612 -5 l606 0 0 -50 0 -50 240 0
c232 0 240 1 229 19 -19 30 -3 50 63 80 116 51 118 52 78 45 -19 -3 -56 -16
-82 -29 -57 -26 -63 -15 -10 19 60 39 166 66 330 84 173 18 161 8 137 120 -73
351 -318 546 -725 580 l-85 7 -3 46 -3 46 103 7 c56 4 103 8 104 9 1 1 -9 49
-23 107 -21 87 -26 131 -27 255 -1 146 0 152 32 240 18 50 34 97 35 104 2 12
-59 21 -333 47 -184 18 -344 34 -357 37 -19 4 -23 0 -23 -23 0 -30 -20 -43
-253 -160 l-129 -65 -19 25 c-130 173 -129 172 -129 232 l0 58 -62 -1 c-35 0
-67 -2 -73 -5z"/>
<path d="M8985 8587 c2 -65 6 -121 9 -124 8 -9 6 110 -4 182 -7 47 -8 35 -5
-58z"/>
<path d="M4438 8635 c3 -16 6 -42 6 -58 -1 -29 -31 -70 -45 -61 -5 3 -9 1 -9
-5 0 -19 -107 -34 -211 -28 -167 8 -232 38 -302 137 -10 14 -8 6 5 -20 33 -63
93 -105 177 -124 137 -31 314 -15 370 33 29 26 37 78 17 121 -14 33 -15 33 -8
5z"/>
<path d="M14041 8587 c-2 -37 30 -79 77 -100 40 -19 65 -22 167 -22 157 0 245
25 299 85 48 54 46 59 -5 10 -67 -65 -240 -101 -376 -80 -99 16 -136 39 -153
97 -5 17 -9 21 -9 10z"/>
<path d="M11879 8553 c-5 -91 -5 -131 2 -158 4 -19 7 11 8 78 1 59 -1 107 -4
107 -3 0 -6 -12 -6 -27z"/>
<path d="M15771 8453 c-1 -43 3 -73 9 -73 12 0 12 97 0 125 -6 14 -9 -3 -9
-52z"/>
<path d="M4687 8200 c7 -105 28 -185 68 -255 77 -132 95 -179 103 -263 9 -95
-5 -180 -43 -257 -44 -91 -42 -90 -186 -50 -68 20 -140 40 -161 45 -34 10 -42
20 -119 158 -89 160 -140 248 -175 302 -12 19 -35 58 -51 87 -56 103 -134 223
-145 223 -7 0 -5 -7 4 -17 8 -10 30 -45 48 -78 18 -33 36 -62 39 -65 6 -4 54
-86 123 -208 10 -19 16 -38 12 -43 -3 -5 0 -8 6 -7 6 2 25 -24 43 -57 18 -33
51 -91 73 -130 23 -38 53 -92 67 -119 l27 -50 207 -58 c115 -33 330 -93 478
-135 149 -41 299 -83 335 -94 36 -10 84 -23 108 -29 47 -12 46 -10 24 -100
l-17 -65 -43 -3 -44 -3 7 31 c13 61 22 140 14 140 -3 0 -12 -30 -19 -67 -6
-38 -14 -76 -16 -85 -5 -16 -25 -18 -202 -20 l-197 -3 -3 -47 c-3 -45 -5 -48
-30 -48 -30 1 -290 17 -395 25 -75 6 -354 52 -369 61 -5 3 -25 8 -46 10 -55 7
-132 46 -178 90 -128 123 -343 448 -479 727 -47 95 -85 165 -85 156 0 -18 266
-551 298 -596 10 -15 21 -33 23 -39 5 -15 71 -116 144 -221 67 -97 127 -145
209 -167 68 -20 517 -61 525 -49 3 5 36 6 76 2 39 -4 721 -7 1518 -8 l1447 -1
0 56 c0 31 49 303 110 612 61 305 110 557 110 559 0 1 -322 3 -715 3 -393 0
-715 -1 -715 -3 0 -1 -41 -205 -91 -452 -50 -248 -101 -498 -112 -557 l-21
-108 -76 -2 c-102 -3 -104 -2 -189 21 -41 12 -76 19 -79 17 -2 -3 21 -12 52
-21 31 -9 56 -17 56 -19 0 -6 -459 -5 -463 1 -2 5 4 40 14 78 10 39 18 77 18
85 1 11 -33 24 -122 48 -67 17 -160 43 -207 56 -47 13 -161 45 -255 71 -93 26
-187 52 -207 59 l-37 12 28 44 c46 75 63 130 68 227 6 101 -11 187 -49 253
-52 88 -63 107 -79 141 -18 36 -40 118 -57 219 -10 54 -10 53 -5 -20z m2559
-665 c54 -83 -35 -286 -115 -260 -46 14 -55 120 -17 201 38 82 99 109 132 59z"/>
<path d="M13811 8204 c0 -11 3 -14 6 -6 3 7 2 16 -1 19 -3 4 -6 -2 -5 -13z"/>
<path d="M13800 8156 c0 -49 -51 -182 -95 -250 -72 -111 -89 -164 -89 -286 -1
-93 2 -111 25 -161 15 -31 54 -92 87 -135 32 -44 69 -97 80 -119 12 -22 21
-36 22 -32 1 18 -52 107 -103 174 -75 98 -100 166 -100 268 1 98 27 183 85
273 22 34 51 91 64 126 23 65 42 166 30 166 -3 0 -6 -11 -6 -24z"/>
<path d="M14840 8086 c0 -21 55 -115 88 -150 36 -37 141 -96 172 -96 8 0 -13
13 -46 29 -81 38 -136 89 -179 165 -19 33 -35 57 -35 52z"/>
<path d="M11946 7993 c38 -125 222 -738 270 -901 31 -105 54 -203 54 -229 l0
-46 1318 8 c963 5 1319 10 1324 19 11 17 9 54 -3 61 -17 11 -23 -3 -9 -20 7
-9 9 -15 4 -14 -5 1 -16 -1 -24 -5 -8 -3 -301 -5 -650 -4 l-635 3 642 3 c422
1 644 5 648 12 4 7 -163 9 -514 8 -286 -2 -517 0 -513 4 4 4 235 9 512 11
l505 2 -573 2 c-315 1 -580 -1 -588 -4 -7 -3 -12 -8 -9 -13 2 -4 -7 -5 -20 -2
-14 2 -22 8 -20 13 3 4 12 6 20 2 16 -6 19 5 7 24 -5 8 -13 9 -22 3 -8 -6 -26
-9 -40 -9 -27 1 -22 4 23 13 19 5 27 13 27 27 0 11 -4 18 -8 15 -4 -3 -9 11
-9 31 -1 20 -6 39 -12 43 -7 3 -9 14 -5 23 5 13 2 16 -10 11 -9 -3 -16 -2 -16
4 0 6 5 12 11 14 5 2 7 11 4 21 -4 9 -10 15 -14 13 -4 -3 -7 11 -7 30 0 20 -4
38 -10 42 -5 4 -11 16 -11 27 -1 11 -9 41 -17 66 -9 25 -27 88 -40 140 -14 52
-43 148 -64 214 -22 66 -43 134 -47 150 -10 39 -9 34 -41 143 l-27 92 -712 0
-713 0 14 -47z m1364 -64 c6 -22 9 -46 7 -52 -3 -7 -8 7 -12 31 -4 23 -12 45
-16 48 -5 3 -9 10 -9 15 0 23 20 -5 30 -42z m70 0 c0 -3 -7 -6 -15 -6 -9 0
-15 10 -15 26 0 24 1 24 15 5 8 -10 15 -22 15 -25z m-43 -11 c-3 -8 -6 -5 -6
6 -1 11 2 17 5 13 3 -3 4 -12 1 -19z m10 -60 c-3 -7 -5 -2 -5 12 0 14 2 19 5
13 2 -7 2 -19 0 -25z m30 -10 c-3 -7 -5 -2 -5 12 0 14 2 19 5 13 2 -7 2 -19 0
-25z m-28 -58 c0 -10 -3 -8 -9 5 -12 27 -12 43 0 25 5 -8 9 -22 9 -30z m40 0
c0 -10 -3 -8 -9 5 -12 27 -12 43 0 25 5 -8 9 -22 9 -30z m58 -112 c-3 -8 -6
-5 -6 6 -1 11 2 17 5 13 3 -3 4 -12 1 -19z m-20 -30 c-3 -7 -5 -2 -5 12 0 14
2 19 5 13 2 -7 2 -19 0 -25z m-13 -40 c-5 -7 -8 -22 -6 -33 l2 -20 -9 20 c-7
18 7 60 17 50 2 -2 0 -10 -4 -17z m62 -6 c-3 -5 2 -21 10 -36 17 -34 17 -33 0
-39 -10 -4 -13 -1 -10 7 3 7 0 24 -5 38 -5 14 -7 29 -4 32 9 9 15 7 9 -2z
m-49 -54 c-3 -8 -6 -5 -6 6 -1 11 2 17 5 13 3 -3 4 -12 1 -19z m13 -62 c0 -12
-5 -7 -19 24 -11 24 -11 24 3 6 9 -11 16 -24 16 -30z m54 -68 c8 -33 7 -50 -3
-44 -11 7 -20 66 -10 66 3 0 9 -10 13 -22z m-24 -19 c0 -6 -4 -7 -10 -4 -5 3
-10 11 -10 16 0 6 5 7 10 4 6 -3 10 -11 10 -16z m60 -8 c7 -13 7 -27 0 -43
-10 -22 -10 -22 -5 4 3 15 1 30 -5 33 -10 6 -14 25 -5 25 2 0 9 -9 15 -19z
m-23 -53 c-3 -8 -6 -5 -6 6 -1 11 2 17 5 13 3 -3 4 -12 1 -19z m40 -37 c-1
-17 -6 -26 -10 -21 -8 7 -1 50 8 50 2 0 3 -13 2 -29z m-50 -18 c-3 -10 -5 -4
-5 12 0 17 2 24 5 18 2 -7 2 -21 0 -30z m30 -35 c-3 -8 -6 -5 -6 6 -1 11 2 17
5 13 3 -3 4 -12 1 -19z m33 -18 c0 -5 -5 -10 -11 -10 -6 0 -8 -7 -4 -17 4 -13
3 -15 -5 -7 -6 6 -8 18 -4 27 7 18 24 23 24 7z m37 -102 c-3 -7 -5 -2 -5 12 0
14 2 19 5 13 2 -7 2 -19 0 -25z m-40 -50 c-3 -7 -5 -2 -5 12 0 14 2 19 5 13 2
-7 2 -19 0 -25z m38 -22 c0 -30 -11 -25 -17 8 -3 15 -1 23 6 20 6 -2 11 -15
11 -28z m-28 -18 c-3 -8 -6 -5 -6 6 -1 11 2 17 5 13 3 -3 4 -12 1 -19z m60 -7
c1 -10 -3 -18 -11 -18 -8 0 -11 9 -8 24 5 26 14 23 19 -6z m-40 -43 c-3 -7 -5
-2 -5 12 0 14 2 19 5 13 2 -7 2 -19 0 -25z m67 16 c3 -8 2 -12 -4 -9 -6 3 -10
10 -10 16 0 14 7 11 14 -7z m-30 -30 c3 -8 2 -12 -4 -9 -6 3 -10 10 -10 16 0
14 7 11 14 -7z m19 -91 c-7 -2 -19 -2 -25 0 -7 3 -2 5 12 5 14 0 19 -2 13 -5z
m1262 -33 c-3 -5 -11 -10 -16 -10 -6 0 -7 5 -4 10 3 6 11 10 16 10 6 0 7 -4 4
-10z"/>
<path d="M3155 7724 c-393 -71 -596 -300 -630 -711 -12 -147 24 -426 81 -628
34 -119 67 -196 120 -277 l44 -68 -61 0 c-103 0 -139 -36 -139 -136 l0 -44
649 0 650 0 5 53 c23 214 35 342 32 344 -2 2 -45 -1 -97 -6 -52 -6 -141 -13
-199 -16 -58 -3 -125 -8 -150 -10 -25 -2 -68 -1 -96 2 l-51 5 13 57 c25 110
34 268 34 615 0 339 14 559 48 784 l9 52 -91 -1 c-50 0 -127 -7 -171 -15z"/>
<path d="M15100 7699 c0 -115 50 -491 98 -734 l27 -140 347 -3 347 -2 7 47
c10 65 -11 272 -36 358 -57 198 -181 345 -360 428 -87 40 -236 76 -342 84
l-88 6 0 -44z"/>
<path d="M1533 7635 c0 -22 2 -30 4 -17 2 12 2 30 0 40 -3 9 -5 -1 -4 -23z"/>
<path d="M1543 7510 c0 -30 2 -43 4 -27 2 15 2 39 0 55 -2 15 -4 2 -4 -28z"/>
<path d="M1553 7375 c0 -27 2 -38 4 -22 2 15 2 37 0 50 -2 12 -4 0 -4 -28z"/>
<path d="M1563 7250 c0 -30 2 -43 4 -27 2 15 2 39 0 55 -2 15 -4 2 -4 -28z"/>
<path d="M1573 7125 c0 -33 2 -45 4 -27 2 18 2 45 0 60 -2 15 -4 0 -4 -33z"/>
<path d="M13841 7114 c0 -11 3 -14 6 -6 3 7 2 16 -1 19 -3 4 -6 -2 -5 -13z"/>
<path d="M12140 7062 c0 -31 38 -224 46 -231 7 -7 0 50 -23 164 -16 83 -23
104 -23 67z"/>
<path d="M1583 7010 c0 -30 2 -43 4 -27 2 15 2 39 0 55 -2 15 -4 2 -4 -28z"/>
<path d="M11683 6955 c-84 -23 -142 -55 -159 -87 -9 -17 -13 -32 -11 -35 3 -2
8 5 12 16 9 29 65 60 164 92 89 29 85 38 -6 14z"/>
<path d="M1593 6905 c-1 -27 3 -77 7 -110 6 -54 7 -56 7 -15 1 25 -3 74 -7
110 -7 62 -7 62 -7 15z"/>
<path d="M11708 6931 c-84 -27 -138 -65 -138 -96 0 -2 13 10 30 25 18 17 66
40 122 58 51 17 82 31 68 31 -14 0 -50 -8 -82 -18z"/>
<path d="M8555 6910 c66 -4 302 -7 525 -7 223 0 459 3 525 7 66 3 -170 6 -525
6 -355 0 -591 -3 -525 -6z"/>
<path d="M11776 6889 c-55 -9 -80 -27 -70 -52 9 -23 23 -21 17 2 -6 24 11 30
132 46 86 12 87 13 30 13 -33 0 -82 -4 -109 -9z"/>
<path d="M1612 6690 c-1 -25 2 -75 7 -112 6 -62 5 -68 -11 -68 -21 0 -101 40
-136 67 -12 10 -32 32 -42 48 -11 17 -20 25 -20 19 0 -25 75 -95 132 -123 34
-17 67 -31 75 -31 7 0 13 -6 13 -14 0 -17 44 -435 66 -629 9 -81 14 -151 10
-154 -12 -12 -114 15 -183 49 -42 21 -92 57 -135 99 -37 36 -63 59 -59 51 5
-8 32 -39 61 -68 63 -64 167 -120 256 -139 36 -7 67 -15 69 -17 1 -2 17 -111
35 -243 17 -132 38 -278 46 -325 7 -46 11 -86 9 -89 -3 -2 -35 6 -72 18 -84
28 -192 99 -234 154 -46 59 -55 67 -33 28 46 -81 185 -178 294 -204 56 -13 51
-3 75 -165 10 -62 20 -111 22 -108 4 4 -24 204 -33 239 -5 14 2 17 40 17 131
0 253 57 328 154 27 35 24 32 -25 -15 -31 -31 -80 -68 -109 -81 -83 -40 -195
-59 -226 -39 -8 5 -21 62 -33 142 -29 197 -69 512 -66 515 1 2 31 7 67 13 82
13 157 50 217 107 l48 45 -55 -42 c-75 -57 -150 -90 -220 -96 -56 -5 -59 -4
-64 18 -7 33 -85 733 -86 767 0 8 16 12 45 12 55 0 122 30 161 72 28 30 28 30
-19 -5 -50 -38 -101 -57 -154 -57 -37 0 -37 1 -52 150 -5 51 -9 67 -9 40z"/>
<path d="M4155 6248 c-2 -7 -29 -188 -60 -403 -30 -214 -64 -448 -75 -520 -11
-71 -20 -133 -20 -137 0 -5 54 -8 120 -8 101 0 120 -2 120 -15 0 -15 -21 -202
-95 -835 -19 -162 -48 -414 -65 -560 -17 -146 -39 -335 -50 -420 -12 -85 -21
-162 -21 -170 -2 -31 -29 -286 -34 -317 l-6 -33 281 0 280 0 0 -69 0 -68 94
-7 c132 -10 152 -16 148 -49 -4 -37 4 -34 28 13 25 48 25 58 2 37 -16 -14 -23
-15 -62 -3 -25 7 -78 17 -117 21 -57 5 -73 11 -75 24 0 9 -2 35 -4 59 l-3 42
98 0 98 0 31 228 c28 200 183 1334 212 1547 34 250 71 514 75 543 l6 32 114 0
115 0 0 93 c0 62 -5 101 -15 121 -8 15 -15 30 -15 32 0 2 41 4 90 4 l91 0 -6
-32 c-3 -18 -28 -211 -55 -428 -27 -217 -88 -696 -135 -1064 -47 -368 -85
-680 -85 -693 0 -17 -6 -23 -22 -24 -17 -1 -19 -2 -5 -6 21 -6 21 4 -3 -178
-11 -82 -20 -156 -20 -162 0 -10 63 -13 280 -13 l280 0 0 -39 c0 -21 3 -53 6
-70 6 -29 10 -31 48 -31 42 0 169 -17 197 -25 11 -4 15 -13 11 -33 -6 -36 9
-21 24 25 15 41 13 51 -5 29 -10 -12 -19 -12 -63 0 -28 7 -83 16 -121 20 -38
4 -70 12 -72 18 -2 6 -6 32 -9 58 l-6 47 98 3 97 3 126 950 c70 523 159 1191
199 1485 51 384 70 551 66 592 -12 120 -100 271 -204 354 l-57 44 -923 0
c-729 0 -924 -3 -927 -12z"/>
<path d="M9939 6227 c-38 -46 -67 -108 -85 -180 -13 -49 -15 -88 -10 -193 l7
-130 -81 -11 c-187 -25 -330 -145 -373 -313 -12 -47 -12 -151 -1 -730 7 -371
14 -756 15 -855 2 -99 5 -148 7 -110 2 39 -1 428 -8 865 -11 792 -11 795 9
854 12 33 39 83 62 113 75 100 169 152 292 160 l77 6 2 -109 c1 -60 4 22 8
181 6 323 6 327 85 436 39 54 35 65 -6 16z"/>
<path d="M11326 6159 c-3 -56 -9 -105 -12 -110 -3 -5 -131 -9 -285 -9 -310 0
-328 -3 -348 -61 -6 -18 -11 -52 -11 -75 l0 -44 655 0 655 0 0 44 c0 101 -36
136 -141 136 l-61 0 26 34 c24 32 96 167 96 180 0 3 -128 6 -283 6 l-284 0 -7
-101z"/>
<path d="M13529 6233 c-61 -51 -89 -87 -129 -168 -48 -96 -66 -199 -50 -284 5
-30 10 -55 10 -56 0 -1 -48 -5 -107 -7 -75 -4 -124 -11 -160 -26 -117 -45
-224 -157 -256 -269 -10 -32 -76 -366 -148 -743 -72 -377 -155 -813 -185 -970
-30 -157 -65 -338 -76 -402 l-22 -118 -265 -2 c-175 -1 -242 -4 -196 -8 90
-10 527 -10 625 0 75 7 75 7 -37 8 -80 2 -113 6 -113 14 0 6 58 307 129 667
144 728 274 1394 291 1486 28 160 147 289 305 331 41 11 214 20 215 12 13 -67
37 -254 34 -257 -3 -3 -49 -7 -104 -9 l-99 -4 -15 -39 c-10 -25 -16 -71 -16
-124 l0 -85 140 0 c102 0 140 3 140 12 0 7 -7 64 -15 127 -71 556 -68 526 -51
608 22 109 58 175 141 260 71 71 79 100 14 46z"/>
<path d="M15002 6153 l-2 -113 -184 0 c-180 0 -186 -1 -212 -24 -24 -20 -28
-32 -32 -90 l-4 -66 339 0 340 0 -13 88 c-8 48 -14 89 -14 92 0 3 -47 4 -105
2 l-104 -3 -4 113 -3 113 -2 -112z"/>
<path d="M15430 6253 c0 -5 9 -89 20 -188 11 -99 20 -186 20 -192 0 -10 48
-13 206 -13 l206 0 -4 65 c-6 91 -24 108 -122 113 l-75 4 39 57 c32 47 80 141
80 157 0 2 -83 4 -185 4 -102 0 -185 -3 -185 -7z"/>
<path d="M3709 5743 l-126 -4 -6 -211 c-4 -116 -7 -242 -7 -280 l0 -68 114 0
114 0 6 53 c3 28 11 104 16 167 6 63 16 168 23 233 9 79 10 116 2 115 -5 -1
-67 -4 -136 -5z"/>
<path d="M14730 5730 c-14 -4 -113 -9 -220 -9 -211 -1 -298 -14 -377 -53 -102
-51 -160 -148 -150 -256 4 -55 36 -276 227 -1607 l87 -610 -276 -5 c-232 -4
-260 -6 -176 -12 125 -10 519 -8 600 2 57 7 56 7 -37 9 l-96 1 -6 28 c-3 15
-28 194 -56 397 -48 354 -58 432 -115 840 -13 99 -48 344 -77 545 -60 416 -64
485 -29 547 13 23 29 39 34 36 6 -3 7 -1 4 4 -9 14 73 66 138 89 40 14 99 19
285 24 182 5 243 10 270 22 38 18 16 23 -30 8z"/>
<path d="M10940 5670 c-14 -4 -96 -8 -182 -9 l-156 -1 -11 -52 c-32 -145 -37
-1164 -12 -2053 3 -121 5 225 3 770 -4 978 2 1256 29 1306 10 20 16 21 102 15
98 -7 232 5 250 23 12 12 12 12 -23 1z"/>
<path d="M3361 5611 c-11 -7 -8 -16 14 -45 24 -31 75 -76 87 -76 5 0 1 65 -6
87 -10 32 -66 52 -95 34z"/>
<path d="M3154 5470 c-45 -18 -54 -46 -54 -172 l0 -118 55 0 55 0 0 150 c0
163 0 163 -56 140z"/>
<path d="M3320 5371 c0 -101 2 -112 22 -131 42 -39 109 -16 123 42 3 13 5 61
3 108 l-3 85 -72 3 -73 3 0 -110z"/>
<path d="M10788 5462 l-48 -16 0 -80 c0 -45 3 -105 6 -133 l7 -53 113 0 114 0
0 150 0 150 -72 -1 c-40 0 -94 -8 -120 -17z"/>
<path d="M11082 5369 c3 -102 5 -112 27 -130 30 -25 72 -24 99 1 20 19 22 31
22 130 l0 110 -76 0 -76 0 4 -111z"/>
<path d="M11340 5331 l0 -151 55 0 55 0 0 119 c0 110 -2 122 -22 145 -13 15
-38 29 -55 32 l-33 7 0 -152z"/>
<path d="M14687 5465 c-58 -22 -185 -35 -329 -35 -97 0 -128 -3 -128 -13 0 -7
4 -48 10 -92 5 -44 11 -95 12 -112 l2 -33 313 0 314 0 -3 148 -3 147 -75 2
c-45 1 -90 -4 -113 -12z"/>
<path d="M14987 5473 c-4 -3 -7 -46 -7 -95 0 -101 16 -144 55 -154 76 -19 105
28 105 166 l0 90 -73 0 c-41 0 -77 -3 -80 -7z"/>
<path d="M15240 5330 l0 -150 50 0 c33 0 50 4 50 13 0 6 -9 70 -20 141 -19
128 -26 146 -62 146 -16 0 -18 -14 -18 -150z"/>
<path d="M9500 5305 l0 -125 186 0 187 0 -7 46 c-3 26 -6 82 -6 125 l0 79
-180 0 -180 0 0 -125z"/>
<path d="M1862 4695 c0 -16 2 -22 5 -12 2 9 2 23 0 30 -3 6 -5 -1 -5 -18z"/>
<path d="M1872 4635 c0 -16 2 -22 5 -12 2 9 2 23 0 30 -3 6 -5 -1 -5 -18z"/>
<path d="M1882 4580 c0 -14 2 -19 5 -12 2 6 2 18 0 25 -3 6 -5 1 -5 -13z"/>
<path d="M1892 4530 c0 -14 4 -38 8 -55 7 -27 8 -27 8 -5 0 14 -4 39 -8 55 -7
27 -8 27 -8 5z"/>
<path d="M1912 4420 c0 -14 2 -19 5 -12 2 6 2 18 0 25 -3 6 -5 1 -5 -13z"/>
<path d="M1922 4370 c0 -14 2 -19 5 -12 2 6 2 18 0 25 -3 6 -5 1 -5 -13z"/>
<path d="M1932 4320 c0 -14 4 -36 8 -50 6 -20 8 -21 8 -5 0 11 -4 34 -8 50 -7
27 -8 27 -8 5z"/>
<path d="M1952 4220 c0 -14 2 -19 5 -12 2 6 2 18 0 25 -3 6 -5 1 -5 -13z"/>
<path d="M1961 4174 c0 -11 3 -14 6 -6 3 7 2 16 -1 19 -3 4 -6 -2 -5 -13z"/>
<path d="M1972 4130 c0 -14 2 -19 5 -12 2 6 2 18 0 25 -3 6 -5 1 -5 -13z"/>
<path d="M1981 4084 c0 -11 3 -14 6 -6 3 7 2 16 -1 19 -3 4 -6 -2 -5 -13z"/>
<path d="M1991 4044 c0 -11 3 -14 6 -6 3 7 2 16 -1 19 -3 4 -6 -2 -5 -13z"/>
<path d="M1568 3721 c182 -4 482 -4 665 0 248 4 165 5 -333 5 -498 0 -581 -1
-332 -5z"/>
<path d="M9423 3445 c0 -33 2 -45 4 -27 2 18 2 45 0 60 -2 15 -4 0 -4 -33z"/>
<path d="M9422 3280 c0 -14 2 -19 5 -12 2 6 2 18 0 25 -3 6 -5 1 -5 -13z"/>
<path d="M8937 3183 c94 -2 252 -2 350 0 98 1 21 2 -172 2 -192 1 -273 -1
-178 -2z"/>
<path d="M10152 3183 c108 -2 288 -2 400 0 112 1 23 2 -197 2 -220 0 -311 -1
-203 -2z"/>
<path d="M13960 2776 l0 -64 -67 -7 c-38 -4 -88 -13 -113 -21 -25 -7 -34 -11
-20 -9 14 3 67 8 118 12 l92 6 0 74 c0 40 -2 73 -5 73 -3 0 -5 -29 -5 -64z"/>
<path d="M8840 2804 c-6 -14 -10 -31 -10 -37 0 -7 -40 -22 -89 -34 -95 -22
-197 -67 -246 -108 l-29 -24 19 -23 c11 -13 16 -20 11 -16 -5 4 -16 -2 -25
-12 -16 -19 -55 -20 -2431 -22 -1328 -1 -2676 -5 -2995 -8 -449 -4 -195 -7
1125 -12 2994 -14 13552 -6 13537 9 -2 2 -1590 6 -3528 9 -1938 3 -3535 7
-3548 10 -16 3 -21 8 -13 13 9 5 7 39 -5 139 -15 118 -20 133 -38 138 -11 2
-148 3 -305 2 l-285 -3 -9 -37 c-8 -31 -14 -37 -44 -43 -63 -12 -143 -46 -178
-78 -27 -23 -35 -37 -34 -61 5 -82 15 -76 -130 -76 -111 0 -130 2 -130 16 0 9
-5 12 -12 8 -10 -6 -10 -4 0 8 9 11 12 50 10 139 l-3 124 -303 3 -302 2 -10
-26z m500 -230 c0 -2 -9 -4 -21 -4 -11 0 -18 4 -14 10 5 8 35 3 35 -6z m105 6
c-3 -5 -27 -9 -53 -8 l-47 1 50 7 c28 4 51 8 53 8 2 1 0 -2 -3 -8z m1125 0 c0
-5 -5 -10 -11 -10 -5 0 -7 5 -4 10 3 6 8 10 11 10 2 0 4 -4 4 -10z m-1927 -7
c3 -5 -17 -8 -43 -8 -26 0 -46 3 -43 8 2 4 22 7 43 7 21 0 41 -3 43 -7z m647
0 c0 -5 -84 -7 -187 -5 -355 4 -388 8 -100 10 158 1 287 -1 287 -5z m713 0
c-46 -2 -120 -2 -165 0 -46 1 -9 3 82 3 91 0 128 -2 83 -3z m487 0 c0 -5 -76
-8 -169 -8 -93 0 -167 3 -164 8 2 4 78 7 169 7 90 0 164 -3 164 -7z m-740 -19
c0 -8 -5 -12 -10 -9 -6 4 -8 11 -5 16 9 14 15 11 15 -7z"/>
<path d="M12026 2805 c-3 -9 -6 -32 -6 -50 0 -19 -4 -36 -8 -39 -5 -3 -47 -10
-95 -16 -48 -6 -97 -15 -109 -21 -22 -9 -22 -9 2 -4 14 3 68 8 121 12 l97 6 5
61 c5 65 3 76 -7 51z"/>
<path d="M4015 2703 c43 -22 66 -44 77 -73 14 -33 22 -11 9 23 -12 30 -65 67
-96 67 -16 -1 -14 -4 10 -17z"/>
<path d="M5179 2696 c25 -13 54 -39 68 -62 24 -37 25 -38 18 -9 -11 48 -67 96
-112 95 -10 -1 1 -11 26 -24z"/>
<path d="M12515 2706 c-36 -16 -60 -42 -70 -76 -6 -20 -3 -19 17 10 13 19 41
45 63 57 44 25 38 30 -10 9z"/>
<path d="M14465 2710 c-34 -14 -65 -50 -64 -73 0 -21 1 -21 8 -2 10 24 36 47
76 68 31 17 15 22 -20 7z"/>
<path d="M11745 2683 c4 -10 10 -28 12 -41 6 -24 23 -41 23 -22 0 16 -28 80
-36 80 -3 0 -3 -8 1 -17z"/>
<path d="M13701 2659 c28 -57 29 -57 26 -22 -1 18 -11 37 -25 47 l-23 18 22
-43z"/>
<path d="M8460 2565 c0 -8 2 -15 4 -15 2 0 6 7 10 15 3 8 1 15 -4 15 -6 0 -10
-7 -10 -15z"/>
<path d="M10560 1535 c-10 -12 -10 -19 -2 -27 22 -22 12 -37 -28 -49 -43 -13
-50 -36 -9 -31 13 2 57 6 97 9 50 4 72 9 72 19 0 8 -15 14 -42 16 -42 3 -43 4
-43 38 0 39 -23 52 -45 25z"/>
<path d="M10776 1412 c-3 -5 11 -24 31 -43 19 -19 43 -46 52 -61 12 -18 21
-24 31 -18 11 7 11 13 -3 34 -22 33 -21 43 3 49 24 6 27 35 4 44 -11 4 -23 -2
-33 -16 l-17 -22 -19 20 c-19 22 -40 27 -49 13z"/>
<path d="M11134 1396 c-21 -17 -29 -35 -33 -72 -6 -45 -8 -49 -34 -52 -25 -3
-28 -7 -25 -35 2 -27 8 -33 31 -35 l27 -3 0 -105 0 -104 35 0 35 0 0 105 0
105 45 0 c45 0 45 0 45 34 0 34 -1 35 -42 38 -41 3 -43 5 -41 32 3 36 19 48
56 42 25 -5 27 -3 27 28 0 38 -12 46 -65 46 -21 0 -44 -9 -61 -24z"/>
<path d="M12440 1400 c-33 -33 -12 -79 36 -80 26 0 44 18 44 45 -1 47 -47 68
-80 35z"/>
<path d="M10512 1384 c-57 -28 -97 -73 -118 -131 -17 -49 -18 -118 -1 -131 7
-6 45 -16 85 -22 121 -19 307 15 373 68 19 16 20 21 9 62 -41 153 -205 225
-348 154z m73 -109 c14 -13 25 -35 25 -47 0 -56 -61 -93 -106 -63 -37 24 -48
52 -34 86 23 54 75 65 115 24z m173 9 c41 -29 19 -94 -33 -94 -24 0 -55 33
-55 57 0 17 36 53 53 53 7 0 23 -7 35 -16z"/>
<path d="M12560 1200 l0 -210 40 0 40 0 0 52 0 52 53 -52 c49 -49 56 -52 102
-52 l49 0 -45 48 c-24 26 -55 59 -67 73 l-23 27 68 66 68 66 -49 0 c-43 0 -53
-5 -100 -46 l-51 -47 -3 117 -3 116 -39 0 -40 0 0 -210z"/>
<path d="M7380 1310 c0 -38 -3 -70 -7 -70 -3 0 -15 8 -26 18 -13 11 -36 17
-69 17 -44 0 -53 -4 -84 -37 -32 -35 -34 -42 -34 -104 0 -78 19 -116 68 -140
39 -18 95 -14 122 11 21 19 30 19 30 0 0 -8 9 -15 20 -15 19 0 20 7 20 195 0
188 -1 195 -20 195 -18 0 -20 -7 -20 -70z m-40 -87 c36 -24 40 -32 40 -90 0
-66 -6 -80 -42 -99 -40 -21 -93 -11 -114 20 -65 101 25 232 116 169z"/>
<path d="M9330 1310 l0 -70 -32 20 c-116 71 -231 -70 -169 -207 32 -69 104
-92 169 -53 26 16 32 17 32 5 0 -9 10 -15 25 -15 l25 0 0 195 0 195 -25 0
c-24 0 -25 -2 -25 -70z m-19 -96 c15 -14 19 -31 19 -85 0 -61 -3 -70 -26 -88
-35 -28 -77 -26 -111 3 -25 22 -28 31 -28 86 0 56 3 64 29 87 23 20 37 24 64
19 19 -3 43 -13 53 -22z"/>
<path d="M9590 1185 c0 -188 1 -195 20 -195 11 0 20 7 20 15 0 12 7 11 40 -6
53 -28 103 -21 144 20 26 26 31 39 34 94 8 130 -77 201 -178 148 l-40 -21 0
70 c0 63 -2 70 -20 70 -19 0 -20 -7 -20 -195z m178 30 c54 -45 50 -144 -7
-178 -38 -22 -59 -21 -98 3 -32 19 -33 21 -33 90 0 69 1 71 33 90 43 26 69 25
105 -5z"/>
<path d="M10382 1356 c-20 -27 -42 -34 -42 -15 0 6 -10 9 -22 7 -29 -4 -30
-30 -1 -43 19 -8 22 -15 16 -47 -4 -31 -3 -38 11 -38 9 0 16 8 16 17 0 9 14
41 31 71 33 60 27 94 -9 48z"/>
<path d="M8067 1363 c-13 -12 -7 -41 10 -47 21 -8 48 17 40 38 -6 16 -38 22
-50 9z"/>
<path d="M7551 1262 c-50 -27 -73 -75 -69 -142 8 -114 98 -168 208 -124 38 15
51 36 31 48 -5 3 -22 -1 -37 -9 -16 -8 -43 -15 -61 -15 -40 0 -93 43 -93 76 0
24 0 24 110 24 l110 0 0 28 c0 42 -33 95 -71 114 -44 23 -86 23 -128 0z m123
-44 c13 -13 27 -33 31 -45 6 -23 5 -23 -89 -23 l-95 0 11 30 c21 61 95 80 142
38z"/>
<path d="M7840 1268 c-34 -18 -55 -58 -46 -91 7 -30 40 -49 113 -67 52 -13 69
-38 47 -68 -19 -28 -77 -29 -121 -3 -27 17 -32 18 -37 5 -10 -27 -7 -32 39
-50 88 -33 175 4 175 75 0 38 -29 62 -103 86 -64 21 -81 42 -57 70 17 20 80
19 109 -1 19 -14 25 -14 32 -3 12 20 11 23 -12 37 -31 20 -110 25 -139 10z"/>
<path d="M8245 1271 c-46 -20 -69 -59 -73 -125 -5 -71 12 -115 54 -142 35 -24
99 -21 135 5 l29 22 0 -31 c0 -22 -10 -41 -30 -62 -28 -27 -36 -30 -76 -25
-25 2 -53 12 -62 20 -16 15 -19 15 -30 -4 -12 -18 -9 -22 34 -41 76 -33 166
-11 192 48 8 15 12 84 12 179 0 148 -1 155 -20 155 -11 0 -20 -7 -20 -15 0
-19 -9 -19 -31 1 -21 19 -86 27 -114 15z m113 -51 c31 -19 32 -22 32 -83 0
-55 -3 -67 -25 -87 -29 -28 -83 -32 -111 -9 -51 42 -53 132 -2 174 36 30 62
31 106 5z"/>
<path d="M8588 1261 c-31 -17 -38 -18 -38 -6 0 8 -9 15 -20 15 -19 0 -20 -7
-20 -140 0 -133 1 -140 20 -140 19 0 20 7 20 105 l0 105 33 20 c38 24 66 25
93 6 16 -12 19 -29 22 -125 3 -101 5 -111 23 -111 18 0 19 9 19 119 0 98 -3
122 -18 141 -25 31 -87 36 -134 11z"/>
<path d="M8871 1262 c-60 -32 -89 -124 -62 -195 32 -82 154 -114 223 -57 33
27 12 46 -28 25 -16 -8 -43 -15 -61 -15 -40 0 -93 43 -93 76 0 24 0 24 111 24
l112 0 -6 40 c-7 54 -31 88 -72 106 -46 19 -83 18 -124 -4z m123 -44 c13 -13
27 -33 31 -45 6 -23 5 -23 -89 -23 l-95 0 11 30 c21 61 95 80 142 38z"/>
<path d="M11392 1264 c-12 -8 -22 -10 -22 -5 0 6 -18 11 -40 11 l-40 0 0 -140
0 -140 40 0 40 0 0 86 c0 47 5 94 10 104 6 11 26 22 45 26 35 6 71 46 60 64
-10 15 -68 12 -93 -6z"/>
<path d="M11543 1260 c-44 -26 -67 -74 -66 -137 0 -60 19 -95 66 -123 40 -25
116 -26 163 -4 38 18 42 33 16 58 -17 15 -22 15 -55 1 -20 -8 -44 -12 -54 -8
-23 8 -53 33 -53 45 0 4 45 8 100 8 l100 0 0 33 c-1 53 -33 111 -73 130 -47
23 -105 21 -144 -3z m125 -77 l14 -23 -61 0 c-63 0 -72 7 -45 35 23 22 73 16
92 -12z"/>
<path d="M11865 1270 c-97 -39 -113 -200 -28 -264 37 -27 113 -32 168 -11 25
9 45 19 45 23 0 3 -9 16 -20 28 -20 20 -24 20 -60 8 -46 -16 -83 -6 -100 26
-10 20 -8 20 90 20 l100 0 0 43 c0 51 -28 100 -69 122 -32 16 -93 19 -126 5z
m109 -82 c15 -25 5 -29 -58 -26 l-57 3 17 23 c12 18 24 22 51 20 20 -2 41 -10
47 -20z"/>
<path d="M12200 1263 c-17 -12 -25 -13 -28 -5 -2 7 -19 12 -38 12 l-34 0 0
-200 0 -200 40 0 40 0 0 66 c0 60 2 65 18 58 9 -5 40 -9 69 -9 41 0 57 5 78
25 54 50 69 126 37 190 -35 70 -127 102 -182 63z m89 -70 c12 -10 24 -35 27
-55 5 -30 2 -41 -19 -62 -62 -62 -149 4 -118 88 17 44 74 58 110 29z"/>
<path d="M8070 1130 c0 -133 1 -140 20 -140 19 0 20 7 20 140 0 133 -1 140
-20 140 -19 0 -20 -7 -20 -140z"/>
<path d="M9870 1266 c0 -2 25 -63 55 -136 30 -73 55 -140 55 -150 0 -28 -40
-72 -61 -67 -11 3 -19 -2 -22 -14 -7 -26 32 -35 70 -15 29 14 53 65 180 374 3
8 -4 12 -20 12 -22 0 -29 -11 -67 -105 -23 -58 -45 -107 -49 -109 -3 -2 -26
45 -50 105 -38 97 -46 109 -67 109 -13 0 -24 -2 -24 -4z"/>
<path d="M12440 1130 l0 -140 35 0 35 0 0 140 0 140 -35 0 -35 0 0 -140z"/>
<path d="M10846 1131 c-11 -17 -127 -51 -212 -61 -54 -7 -105 -7 -150 -1 -37
6 -70 8 -73 5 -11 -10 88 -91 126 -102 90 -27 183 -10 244 45 38 35 86 110 76
120 -3 2 -8 0 -11 -6z"/>
</g>
</svg>
